<?xml version="1.0" encoding="utf-8"?>
<!-- Generator: Adobe Illustrator 25.2.1, SVG Export Plug-In . SVG Version: 6.00 Build 0)  -->
<svg version="1.1" id="bold" xmlns="http://www.w3.org/2000/svg" xmlns:xlink="http://www.w3.org/1999/xlink" x="0px" y="0px"
	 viewBox="0 0 512 512" style="enable-background:new 0 0 512 512;" xml:space="preserve">
<style type="text/css">
	.st0{fill:#FDDCDF;}
	.st1{fill:#F87180;}
	.st2{fill:#F64E60;}
</style>
<path class="st0" d="M416,512H96c-53,0-96-43-96-96V96C0,43,43,0,96,0h320c53,0,96,43,96,96v320C512,469,469,512,416,512z"/>
<path class="st1" d="M314.7,245.3c-38.2,0-69.3,31.1-69.3,69.3s31.1,69.3,69.3,69.3s69.3-31.1,69.3-69.3S352.9,245.3,314.7,245.3z
	 M341.3,325.3h-16v16c0,5.9-4.8,10.7-10.7,10.7s-10.7-4.8-10.7-10.7v-16h-16c-5.9,0-10.7-4.8-10.7-10.7S282.1,304,288,304h16v-16
	c0-5.9,4.8-10.7,10.7-10.7s10.7,4.8,10.7,10.7v16h16c5.9,0,10.7,4.8,10.7,10.7S347.2,325.3,341.3,325.3z"/>
<path class="st2" d="M309.3,191.6v-42.2c0-5.9-4.8-10.7-10.7-10.7s-10.7,4.8-10.7,10.7v21.4L247.5,131c-4.1-4-10.8-4-14.9,0
	l-99.8,97.6c-3,3-4.7,7.2-4.7,11.4c0,8.8,7.2,16,16,16h16v58.7c0,14.7,12,26.7,26.7,26.7h26.7c5.9,0,10.7-4.8,10.7-10.7
	s-4.8-10.7-10.7-10.7h-26.7c-2.9,0-5.3-2.4-5.3-5.3v-69.3c0-5.9-4.8-10.7-10.7-10.7h-13.6l82.9-81.1l69.9,68.3
	c4.2,4.1,11,4,15.1-0.2s4-11-0.2-15.1L309.3,191.6z"/>
</svg>
