<?xml version="1.0" encoding="utf-8"?>
<!-- Generator: Adobe Illustrator 25.2.1, SVG Export Plug-In . SVG Version: 6.00 Build 0)  -->
<svg version="1.1" id="bold" xmlns="http://www.w3.org/2000/svg" xmlns:xlink="http://www.w3.org/1999/xlink" x="0px" y="0px"
	 viewBox="0 0 512 512" style="enable-background:new 0 0 512 512;" xml:space="preserve">
<style type="text/css">
	.st0{fill:#C9F7F5;}
	.st1{fill:#7FE881;}
	.st2{fill:#5BC980;}
</style>
<path class="st0" d="M416,512H96c-53,0-96-43-96-96V96C0,43,43,0,96,0h320c53,0,96,43,96,96v320C512,469,469,512,416,512z"/>
<path class="st1" d="M380.9,365.8l-27.1-27.1c5.6-8.4,8.9-18.5,8.9-29.4c0-29.4-23.9-53.3-53.3-53.3s-53.3,23.9-53.3,53.3
	s23.9,53.3,53.3,53.3c10.8,0,20.9-3.3,29.4-8.9l27.1,27.1c4.2,4.2,10.9,4.2,15.1,0S385,370,380.9,365.8L380.9,365.8z M309.3,341.3
	c-17.6,0-32-14.4-32-32s14.4-32,32-32s32,14.4,32,32S327,341.3,309.3,341.3z"/>
<path class="st2" d="M347.2,228.6l-37.9-37v-42.2c0-5.9-4.8-10.7-10.7-10.7c-5.9,0-10.7,4.8-10.7,10.7v21.4L247.5,131
	c-4.1-4-10.8-4-14.9,0l-99.7,97.5c-3.1,3-4.8,7.1-4.8,11.4c0,8.8,7.2,16,16,16h16v58.7c0,14.7,12,26.7,26.7,26.7H224
	c5.9,0,10.7-4.8,10.7-10.7S229.9,320,224,320h-37.3c-2.9,0-5.3-2.4-5.3-5.3v-69.3c0-5.9-4.8-10.7-10.7-10.7h-13.6l82.9-81.1
	l92.3,90.2c4.2,4.1,11,4,15.1-0.2C351.5,239.4,351.4,232.7,347.2,228.6L347.2,228.6z"/>
</svg>
