<?xml version="1.0" encoding="utf-8"?>
<!-- Generator: Adobe Illustrator 25.2.1, SVG Export Plug-In . SVG Version: 6.00 Build 0)  -->
<svg version="1.1" id="bold" xmlns="http://www.w3.org/2000/svg" xmlns:xlink="http://www.w3.org/1999/xlink" x="0px" y="0px"
	 viewBox="0 0 512 512" style="enable-background:new 0 0 512 512;" xml:space="preserve">
<style type="text/css">
	.st0{fill:#C9F7F5;}
	.st1{fill:#5BC980;}
</style>
<path class="st0" d="M416,512H96c-53,0-96-43-96-96V96C0,43,43,0,96,0h320c53,0,96,43,96,96v320C512,469,469,512,416,512z"/>
<path class="st1" d="M378.9,238.9L352,213.8v-64.5c0-5.9-4.8-10.7-10.7-10.7h-32c-5.9,0-10.7,4.8-10.7,10.7v14.6l-35.4-33.1
	c-4.1-3.8-10.5-3.8-14.6,0L132.8,239.2c-3.1,3.1-4.8,7.2-4.8,11.5c0,8.8,7.2,16,16,16h16v90.7c0,14.7,12,26.7,26.7,26.7h138.7
	c14.7,0,26.7-12,26.7-26.7v-90.7h16c8.8,0,16-7.2,16-16C384,246.4,382.3,242.3,378.9,238.9L378.9,238.9z M312,341.3H200
	c-4.4,0-8-3.6-8-8s3.6-8,8-8h2.7v-40c0-4.4,3.6-8,8-8h26.7c4.4,0,8,3.6,8,8v40h21.3v-82.7c0-4.4,3.6-8,8-8h26.7c4.4,0,8,3.6,8,8
	v82.7h2.7c4.4,0,8,3.6,8,8S316.4,341.3,312,341.3z"/>
</svg>
