<?xml version="1.0" encoding="utf-8"?>
<!-- Generator: Adobe Illustrator 25.2.1, SVG Export Plug-In . SVG Version: 6.00 Build 0)  -->
<svg version="1.1" id="bold" xmlns="http://www.w3.org/2000/svg" xmlns:xlink="http://www.w3.org/1999/xlink" x="0px" y="0px"
	 viewBox="0 0 512 512" style="enable-background:new 0 0 512 512;" xml:space="preserve">
<style type="text/css">
	.st0{fill:#C9F7F5;}
	.st1{fill:#7FE881;}
	.st2{fill:#5BC980;}
</style>
<path class="st0" d="M416,512H96c-53,0-96-43-96-96V96C0,43,43,0,96,0h320c53,0,96,43,96,96v320C512,469,469,512,416,512z"/>
<path class="st1" d="M341.3,330.7c-11.8,0-21.3-9.6-21.3-21.3s9.6-21.3,21.3-21.3s21.3,9.6,21.3,21.3S353.1,330.7,341.3,330.7z"/>
<path class="st1" d="M376,384h-69.3c-4.4,0-8-3.6-8-8v-5.3c0-16.2,13.2-29.3,29.3-29.3h26.7c16.2,0,29.3,13.2,29.3,29.3v5.3
	C384,380.4,380.4,384,376,384z"/>
<path class="st2" d="M309.3,191.6v-42.2c0-5.9-4.8-10.7-10.7-10.7s-10.7,4.8-10.7,10.7v21.4L247.5,131c-4.1-4-10.8-4-14.9,0
	l-99.7,97.5c-3.1,3-4.8,7.1-4.8,11.4c0,8.8,7.2,16,16,16h16v58.7c0,14.7,12,26.7,26.7,26.7h90.7c5.9,0,10.7-4.8,10.7-10.7
	s-4.8-10.7-10.7-10.7h-90.7c-2.9,0-5.3-2.4-5.3-5.3v-69.3c0-5.9-4.8-10.7-10.7-10.7h-13.6l82.9-81.1l82.9,81.1h-13.6
	c-5.9,0-10.7,4.8-10.7,10.7V256c0,5.9,4.8,10.7,10.7,10.7S320,261.9,320,256h16c8.8,0,16-7.2,16-16c0-4.3-1.7-8.4-4.8-11.4
	L309.3,191.6z"/>
</svg>
