<?xml version="1.0" encoding="utf-8"?>
<!-- Generator: Adobe Illustrator 25.2.1, SVG Export Plug-In . SVG Version: 6.00 Build 0)  -->
<svg version="1.1" id="bold" xmlns="http://www.w3.org/2000/svg" xmlns:xlink="http://www.w3.org/1999/xlink" x="0px" y="0px"
	 viewBox="0 0 512 512" style="enable-background:new 0 0 512 512;" xml:space="preserve">
<style type="text/css">
	.st0{fill:#EEE5FF;}
	.st1{fill:#B5B5B5;}
	.st2{fill:#6B6B6B;}
</style>
<path class="st0" d="M416,512H96c-53,0-96-43-96-96V96C0,43,43,0,96,0h320c53,0,96,43,96,96v320C512,469,469,512,416,512z"/>
<path class="st1" d="M314.7,245.3c-38.2,0-69.3,31.1-69.3,69.3s31.1,69.3,69.3,69.3s69.3-31.1,69.3-69.3S352.9,245.3,314.7,245.3z
	 M325.3,352c0,5.9-4.8,10.7-10.7,10.7S304,357.9,304,352v-37.3c0-5.9,4.8-10.7,10.7-10.7s10.7,4.8,10.7,10.7L325.3,352L325.3,352z
	 M314.7,288c-5.9,0-10.7-4.8-10.7-10.7c0-5.9,4.8-10.7,10.7-10.7s10.7,4.8,10.7,10.7C325.3,283.2,320.6,288,314.7,288z"/>
<path class="st2" d="M309.3,191.6v-42.2c0-5.9-4.8-10.7-10.7-10.7c-5.9,0-10.7,4.8-10.7,10.7v21.4L247.5,131c-4.1-4-10.8-4-14.9,0
	l-99.8,97.5c-3,3-4.8,7.2-4.8,11.4c0,8.8,7.2,16,16,16h16v58.7c0,14.7,12,26.7,26.7,26.7h26.7c5.9,0,10.7-4.8,10.7-10.7
	s-4.8-10.7-10.7-10.7h-26.7c-2.9,0-5.3-2.4-5.3-5.3v-69.3c0-5.9-4.8-10.7-10.7-10.7h-13.6l82.9-81.1l69.9,68.3
	c4.2,4.1,11,4,15.1-0.2c4.1-4.2,4-11-0.2-15.1L309.3,191.6z"/>
</svg>
