<?xml version="1.0" encoding="utf-8"?>
<!-- Generator: Adobe Illustrator 25.2.1, SVG Export Plug-In . SVG Version: 6.00 Build 0)  -->
<svg version="1.1" id="bold" xmlns="http://www.w3.org/2000/svg" xmlns:xlink="http://www.w3.org/1999/xlink" x="0px" y="0px"
	 viewBox="0 0 512 512" style="enable-background:new 0 0 512 512;" xml:space="preserve">
<style type="text/css">
	.st0{fill:#C9F7F5;}
	.st1{fill:#7FE881;}
	.st2{fill:#5BC980;}
</style>
<g>
	<path class="st0" d="M416,512H96c-53,0-96-43-96-96V96C0,43,43,0,96,0h320c53,0,96,43,96,96v320C512,469,469,512,416,512z"/>
	<g>
		<path class="st1" d="M267.2,176.6c0-18.1,15.3-32.8,34.1-32.8c9.1,0,17.7,3.4,24.2,9.6c5.2,5.1,8.5,11.4,9.6,18.3
			c0.7,4.4,4.8,7.3,9.2,6.7c4.4-0.7,7.3-4.8,6.7-9.2c-1.6-10.3-6.5-19.7-14.2-27.3c-9.6-9.1-22.1-14.2-35.3-14.2
			c-27.6,0-50.1,21.9-50.1,48.8v9c0,15.5-2.1,30.8-6.1,45.4c-1.2,4.3,1.3,8.7,5.6,9.9c4.3,1.2,8.7-1.3,9.9-5.6
			c4.4-16,6.7-32.8,6.7-49.7V176.6z"/>
		<path class="st1" d="M343.4,194.5c-4.5-0.4-8.3,2.8-8.7,7.2c-1,10.7-3,21.3-6,31.4c-1.2,4.2,1.2,8.7,5.4,9.9
			c4.3,1.2,8.7-1.2,9.9-5.4c3.3-11.1,5.5-22.7,6.6-34.4C351,198.8,347.8,194.9,343.4,194.5L343.4,194.5z"/>
		<path class="st1" d="M279.9,199.1c-4.4-0.4-8.4,2.6-8.9,7c-1.4,11.8-4.1,23.5-7.9,34.6c-1.4,4.2,0.8,8.7,4.9,10.2
			c4.1,1.4,8.7-0.8,10.2-4.9c4.2-12.3,7.2-25,8.7-38C287.4,203.6,284.3,199.6,279.9,199.1z"/>
		<path class="st1" d="M322.4,194.1c4.4,0,8-4.1,8-8.5v-9c0-7.7-3.1-14.9-8.6-20.1c-5.4-5.4-12.7-8.3-20.5-8.3
			c-16,0-29.1,12.8-29.1,28.4v7c0,4.4,3.6,8,8,8s8-3.6,8-8v-7c0-6.8,5.9-12.4,13.1-12.4c3.5,0,6.8,1.3,9.4,3.8
			c2.4,2.3,3.7,5.3,3.7,8.6v9.9C314.4,191,317.9,194.1,322.4,194.1z"/>
		<path class="st1" d="M321.8,202.2c-4.4-0.6-8.4,2.4-9,6.8c-1.6,11.7-4.5,23.4-8.5,34.6c-1.5,4.1,0.6,8.7,4.8,10.2
			c4.2,1.5,8.8-0.7,10.2-4.8c4.4-12.2,7.6-25,9.4-37.8C329.2,206.8,326.1,202.8,321.8,202.2L321.8,202.2z"/>
		<path class="st1" d="M309.3,176.6c0-4.4-3.6-8-8-8s-8,3.6-8,8v9c0,20.3-3.6,40.2-10.7,59.4c-1.5,4.1,0.7,8.6,4.8,10.1
			c4,1.5,8.8-0.6,10.3-4.9c7.7-20.7,11.6-42.5,11.6-64.6V176.6z"/>
	</g>
	<path class="st2" d="M346.7,298.6H239.9c-4.9-6.4-12.5-10.7-21.2-10.7c-14.7,0-26.7,11.9-26.7,26.7c0,14.7,11.9,26.7,26.7,26.7
		c8.7,0,16.4-4.2,21.2-10.7h106.8c8.8,0,16-7.2,16-16S355.5,298.6,346.7,298.6z"/>
	<path class="st2" d="M218.7,266.6c11.1,0,21.6,3.8,30.1,10.7H288c0,0-9.2-2.1-13.6-5c-4.5,0.6-8.8,0.3-13.4-1.3
		c-5.2-1.8-9.6-5.1-12.9-9.1c-10.8-1.7-18-8.2-21.9-16.6H200c-10.3,0-18.7-8.4-18.7-18.7v-26.3c0-10.3,8.4-18.7,18.7-18.7h29.8
		c0-7.9-0.1-12.5,2-21.2h-53.2c-16.2,0-29.3,13.2-29.3,29.3v124.8c0,38.2,31.1,69.3,69.3,69.3c24.5,0,46-12.8,58.3-32h-28.3
		c-8.4,6.9-18.9,10.7-30.1,10.7c-26.5,0-48-21.5-48-48S192.2,266.6,218.7,266.6z"/>
</g>
</svg>
